<svg width="1920" height="1080" viewBox="0 0 1920 1080" fill="none" xmlns="http://www.w3.org/2000/svg">
<rect width="1920" height="1080" fill="white"/>
<rect x="1660" width="260" height="1080" fill="#121212"/>
<rect width="260" height="1080" fill="#121212"/>
<path d="M1746.36 291.215L1743.66 286.335C1741.87 283.099 1737.83 282.017 1734.66 283.925L1722.76 291.09C1721.24 292.007 1720.11 293.504 1719.64 295.257C1719.17 297.01 1719.4 298.868 1720.26 300.424L1722.95 305.31L1718.28 308.121C1716.35 309.288 1715.66 311.843 1716.76 313.822C1717.85 315.802 1720.31 316.46 1722.25 315.293L1726.92 312.476L1728.25 314.866L1723.57 317.676C1721.63 318.843 1720.95 321.398 1722.04 323.372C1723.14 325.351 1725.6 326.011 1727.54 324.844L1732.21 322.032L1733.54 324.428L1728.86 327.24C1726.93 328.407 1726.24 330.956 1727.34 332.936C1728.43 334.915 1730.89 335.573 1732.83 334.407L1737.5 331.595L1757.46 367.676C1746.74 379.543 1743.33 395.68 1750.21 408.119C1751.48 410.42 1753.04 412.469 1754.83 414.262C1758.76 418.162 1760.33 423.979 1758.95 429.508C1756.22 440.463 1757.2 451.77 1762.58 461.506C1774.98 483.918 1805.98 489.468 1831.82 473.91C1857.66 458.353 1868.56 427.568 1856.17 405.156C1850.78 395.426 1841.89 388.88 1831.43 385.865C1826.16 384.342 1822.11 380.001 1820.84 374.521C1820.25 372.005 1819.33 369.575 1818.06 367.262C1811.18 354.835 1796.07 349.835 1780.86 353.587L1760.91 317.501L1765.58 314.691C1766.55 314.098 1767.21 313.178 1767.48 312.145C1767.76 311.112 1767.65 309.988 1767.11 308.99C1766.02 307.01 1763.55 306.35 1761.62 307.517L1756.94 310.335L1755.62 307.952L1760.3 305.136C1761.27 304.543 1761.92 303.617 1762.2 302.59C1762.47 301.556 1762.37 300.433 1761.83 299.435C1760.73 297.455 1758.27 296.795 1756.33 297.962L1751.66 300.78L1750.33 298.39L1755.02 295.569C1755.98 294.988 1756.64 294.057 1756.91 293.029C1757.19 292.001 1757.08 290.872 1756.54 289.88C1755.45 287.9 1752.98 287.24 1751.04 288.407L1746.36 291.215ZM1805.9 387.58C1811.01 396.821 1807.82 408.722 1798.77 414.169C1789.73 419.616 1778.25 416.542 1773.14 407.301C1768.03 398.06 1771.22 386.153 1780.27 380.712C1789.31 375.265 1800.79 378.333 1805.9 387.58Z" fill="white"/>
<g clip-path="url(#clip0_1_127)">
<path d="M123.831 45.8966L100.837 59.1723L99.1339 63.8085L94.4889 66.4903L89.2793 69.498L66.2851 82.7737L57.7907 87.678L56.4305 88.4633L51.5639 87.6201L25.2849 102.792C23.4708 103.84 22.7082 105.916 23.5818 107.429L52.0533 156.743C52.9268 158.256 55.1058 158.633 56.9199 157.586L81.8388 143.199C82.3159 142.923 83.1989 142.414 83.1989 142.414L84.902 137.777L86.2622 136.992L94.7567 132.088L117.751 118.812L122.96 115.804L127.605 113.123L132.472 113.966L155.466 100.69C157.28 99.6427 158.043 97.5668 157.169 96.0538L128.698 46.7397C127.824 45.2267 125.645 44.8492 123.831 45.8966ZM68.599 139.884L65.3141 141.781L58.7444 145.574L55.4595 147.47L52.296 141.991L55.5809 140.094L62.1506 136.301L65.4355 134.405L68.599 139.884ZM62.272 128.925L58.9871 130.822L52.4174 134.615L49.1325 136.512L45.969 131.032L49.2539 129.136L55.8236 125.343L59.1085 123.446L62.272 128.925ZM55.945 117.967L52.6601 119.863L46.0904 123.656L42.8055 125.553L39.642 120.074L42.9269 118.177L49.4966 114.384L52.7815 112.487L55.945 117.967ZM49.618 107.008L46.3331 108.905L39.7634 112.698L36.4785 114.594L33.315 109.115L36.5999 107.218L43.1696 103.425L46.4545 101.529L49.618 107.008ZM90.0114 123.869C90.8849 125.382 90.1224 127.458 88.3083 128.505C86.4942 129.552 84.3152 129.175 83.4417 127.662L64.4606 94.7858C63.5871 93.2728 64.3497 91.1969 66.1638 90.1496C67.9778 89.1022 70.1569 89.4797 71.0304 90.9927L90.0114 123.869ZM103.151 116.283C104.024 117.796 103.262 119.872 101.448 120.919C99.6337 121.966 97.4547 121.589 96.5812 120.076L77.6002 87.1997C76.7266 85.6867 77.4892 83.6108 79.3033 82.5635C81.1174 81.5161 83.2964 81.8936 84.1699 83.4066L103.151 116.283ZM116.29 108.697C117.164 110.21 116.401 112.285 114.587 113.333C112.773 114.38 110.594 114.003 109.721 112.49L90.7397 79.6136C89.8661 78.1006 90.6287 76.0247 92.4428 74.9774C94.2569 73.93 96.4359 74.3075 97.3094 75.8205L116.29 108.697ZM142.448 100.9C138.82 102.995 134.462 102.24 132.715 99.214C130.968 96.1877 132.493 92.0363 136.121 89.9416C139.749 87.8469 144.107 88.6016 145.854 91.6279C147.601 94.6538 146.076 98.8056 142.448 100.9ZM132.958 84.4622C129.329 86.5569 124.971 85.8019 123.224 82.7759C121.477 79.7496 123.002 75.5983 126.631 73.5035C130.259 71.4088 134.617 72.1635 136.364 75.1898C138.111 78.2158 136.586 82.3675 132.958 84.4622ZM123.467 68.0242C119.839 70.1189 115.481 69.3639 113.734 66.3379C111.987 63.3116 113.512 59.1602 117.14 57.0655C120.768 54.9708 125.126 55.7255 126.873 58.7518C128.62 61.7778 127.095 65.9295 123.467 68.0242Z" fill="white"/>
</g>
<g clip-path="url(#clip1_1_127)">
<path d="M194.121 484.966C186.304 477.011 173.567 477.011 165.75 484.966L160.316 490.5C156.469 494.426 156.475 500.82 160.323 504.739L163.002 507.468C162.476 507.771 161.929 508.046 161.477 508.499L142.091 528.245C129.306 518.468 111.708 518.551 98.8965 528.698L88.8659 537.148C86.564 539.094 85.7879 542.346 86.969 545.144C88.2179 548.128 87.2592 553.408 83.0066 557.732C78.2341 562.593 72.1185 563.322 69.3983 560.95C66.8939 558.763 63.2219 558.736 60.6973 560.874L52.8334 567.502C44.8076 573.861 39.8393 583.445 39.2049 593.786C38.5771 604.126 42.3437 614.26 49.526 621.582L49.9917 622.056L39.9744 632.252C37.3419 634.94 37.3419 639.292 39.9744 641.974C41.2907 643.321 43.0186 643.988 44.7469 643.988C46.4748 643.988 48.2031 643.321 49.5193 641.974L59.5367 631.778L59.9958 632.246C66.6648 639.038 75.7101 642.826 85.0861 642.826C85.8217 642.826 86.5577 642.806 87.2934 642.758C97.4455 642.112 106.849 637.058 113.032 628.953L119.559 620.647C121.564 618.096 121.53 614.466 119.478 611.957C117.217 609.173 117.959 602.958 122.684 598.145C126.903 593.848 131.844 592.968 134.699 594.006C137.393 594.975 140.424 594.102 142.219 591.82L150.636 581.108C160.188 568.602 160.525 550.968 151.548 538.063L171.022 518.221C171.474 517.768 171.737 517.211 172.034 516.668L174.714 519.397C176.638 521.363 179.176 522.346 181.707 522.346C184.239 522.346 186.776 521.363 188.7 519.397L194.121 513.876C197.914 510.019 200 504.883 200 499.424C200 493.965 197.914 488.83 194.121 484.966ZM71.7474 602.737C70.0194 602.737 68.2912 602.07 66.9749 600.723C64.3423 598.041 64.3423 593.689 66.9749 591.001L73.7249 584.126C76.3641 581.445 80.637 581.445 83.2695 584.126C85.9087 586.814 85.9087 591.166 83.2695 593.848L76.5195 600.723C75.2035 602.07 73.4753 602.737 71.7474 602.737ZM96.7702 607.598L90.0202 614.473C88.7039 615.82 86.976 616.487 85.2477 616.487C83.5198 616.487 81.7916 615.821 80.4753 614.473C77.8361 611.792 77.8361 607.44 80.4753 604.751L87.2253 597.876C89.8645 595.195 94.1374 595.195 96.7699 597.876C99.4095 600.565 99.4094 604.916 96.7702 607.598ZM184.576 504.154L181.707 507.076L172.419 497.616L175.294 494.701C177.853 492.089 182.018 492.089 184.576 494.694C187.134 497.3 187.134 501.549 184.576 504.154Z" fill="white"/>
</g>
<path d="M36.6637 786.686C32.4653 789.249 30.6246 796.543 30.5878 805.505C31.7514 802.477 33.1522 799.576 34.7767 796.828C29.0155 812.224 37.2916 838.623 45.7528 853.686C46.051 843.692 48.5365 826.179 60.6201 826.832C49.2144 830.308 52.7593 851.167 54.1228 860.857C59.954 852.655 62.443 843.577 73.8031 836.827C67.308 851.631 68.5544 863.015 69.4447 874.556C74.3223 864.247 78.2999 857.568 82.8718 853.256C83.951 844.146 85.2018 834.816 87.6092 826.373C89.4152 820.041 91.9109 814.139 95.5631 809.361C79.4093 794.867 60.8354 783.526 40.3785 785.696C38.9783 785.678 37.7433 786.027 36.6637 786.686ZM103.79 812.072C99.6383 816.168 96.799 822.086 94.75 829.271C92.0651 838.687 90.8261 850.04 89.5353 861.056C88.2447 872.073 86.9445 882.743 83.6286 891.176C81.0862 897.642 76.8897 902.9 70.7988 905.074C75.0367 910.101 81.6559 915.963 88.8105 920.721C98.3267 927.049 108.941 931.487 115.582 931.397C118.633 931.355 120.712 930.2 123.237 927.62C125.76 925.041 128.439 921.023 131.819 916.197C138.578 906.546 148.292 893.804 167.131 882.927C185.97 872.05 201.861 870.009 213.6 868.981C219.469 868.466 224.288 868.155 227.785 867.259C231.28 866.364 233.32 865.14 234.882 862.519C238.28 856.813 239.744 845.402 239.022 833.996C238.479 825.421 236.712 816.759 234.477 810.574C229.549 814.763 222.896 815.767 216.026 814.737C207.065 813.391 197.174 809.182 186.988 804.792C176.802 800.401 166.351 795.798 156.853 793.416C149.606 791.597 143.062 791.097 137.438 792.644C141.613 797.448 143.309 802.873 142.625 807.722C141.71 814.209 137.363 819.183 132.087 822.23C126.811 825.276 120.328 826.553 114.253 824.102C109.712 822.27 105.862 818.088 103.789 812.071L103.79 812.072ZM151.052 803.227C153.936 801.405 159.563 803.758 158.831 810.341C161.13 801.223 170.9 806.474 166.718 812.92C163.467 817.93 160.691 823.333 158.426 829C159.508 830.036 160.446 831.23 161.204 832.54C163.486 836.492 164.606 840.648 163.395 845.065L163.221 845.711L163.558 846.333L164.503 848.059C171.662 849.398 178.933 849.594 186.303 848.395C194.806 847.011 195.202 859.472 184.33 857.754C194.77 861.365 189.422 871.813 182.563 866.148C178.466 862.764 174.09 859.786 169.517 857.209L169.566 857.3C169.246 857.953 168.543 859.255 167.3 860.834L162.956 853.31L159.71 855.184L164.538 863.546C163.361 864.714 162.608 865.528 160.846 866.68L156.257 858.731L152.315 861.007L156.915 868.975C155.135 869.904 154.119 870.171 152.545 870.648L147.641 862.153L144.394 864.027L148.868 871.776C146.406 872.234 144.543 872.233 143.696 872.199L143.626 872.086C143.572 877.33 143.963 882.604 144.844 887.838C146.32 896.61 134.598 896.018 136.691 885.171C132.743 895.447 122.146 888.869 127.597 882.197C132.296 876.444 135.757 870.087 138.175 863.258L137.072 861.473L136.709 860.884L136.078 860.715C131.722 859.535 128.705 856.493 126.45 852.586C125.698 851.283 125.147 849.904 124.791 848.482C118.762 847.616 112.705 847.326 106.752 847.636C99.0771 848.035 99.4116 836.95 108.457 839.517C102.521 836.917 103.132 831.07 105.989 829.332C107.196 828.598 108.803 828.597 110.486 829.88C115.23 833.497 120.048 836.773 124.933 839.625C126.246 834.75 129.545 830.174 134.529 827.188L134.845 827.006C139.989 824.036 145.713 823.409 150.681 824.722C150.66 819.048 150.236 813.221 149.473 807.283C149.217 805.295 149.924 803.94 151.052 803.228L151.052 803.227ZM131.791 846.832C130.246 847.753 129.48 849.15 130.625 851.266C132.539 854.581 136.497 855.882 139.472 854.164C142.445 852.448 143.303 848.366 141.39 845.051C141.39 845.051 134.956 844.946 131.791 846.832ZM153.55 834.27C150.335 836.066 147.209 841.691 147.209 841.691C149.123 845.006 153.087 846.304 156.06 844.587C159.032 842.871 159.887 838.791 157.973 835.477C156.714 833.427 155.12 833.392 153.55 834.27ZM146.903 847.902L148.116 856.417L153.671 853.21L146.903 847.902Z" fill="white"/>
<path d="M1793.92 206.452L1773.71 196.841C1773.68 195.483 1773.17 194.226 1772.14 193.363C1769.95 191.509 1766.27 192.128 1763.93 194.749C1761.59 197.374 1761.47 200.998 1763.67 202.852C1765.31 204.232 1767.76 204.236 1769.87 203.075L1790.08 212.687C1790.11 214.041 1790.62 215.298 1791.65 216.165C1793.84 218.015 1797.52 217.395 1799.86 214.778C1802.2 212.154 1802.32 208.526 1800.13 206.675C1798.49 205.295 1796.04 205.287 1793.92 206.452Z" fill="white"/>
<path d="M1762.08 220.869C1760.71 223.042 1761.16 225.583 1763.1 226.546L1771.03 230.472C1772.96 231.435 1775.65 230.449 1777.02 228.277L1784.5 216.696L1769.56 209.289L1762.08 220.869Z" fill="white"/>
<path d="M1791.94 174.96C1785.05 186.737 1779.71 194.197 1779.71 194.197L1792.98 200.117C1792.98 200.117 1802.89 184.672 1813.46 164.46C1833.67 153.886 1849.12 143.98 1849.12 143.98L1843.2 130.705C1843.2 130.705 1835.74 136.051 1823.96 142.945C1832.48 123.99 1839.24 104.158 1838.52 90.0244C1837.06 61.5049 1818 56.1058 1818 56.1058C1818 56.1058 1814.92 55.0931 1817.47 60.4168C1829.34 88.4319 1816.83 125.937 1803.11 154.113C1774.94 167.829 1737.43 180.344 1709.42 168.47C1704.09 165.919 1705.11 168.999 1705.11 168.999C1705.11 168.999 1710.5 188.056 1739.02 189.518C1753.16 190.243 1772.99 183.479 1791.94 174.96Z" fill="white"/>
<path d="M1852.08 120.874C1853.24 118.761 1853.23 116.306 1851.85 114.667C1850 112.469 1846.37 112.588 1843.75 114.929C1841.13 117.273 1840.51 120.945 1842.36 123.144C1843.23 124.172 1844.48 124.684 1845.84 124.711L1855.45 144.918C1854.29 147.035 1854.29 149.486 1855.67 151.125C1857.53 153.32 1861.15 153.204 1863.78 150.864C1866.4 148.523 1867.02 144.844 1865.16 142.649C1864.3 141.617 1863.04 141.105 1861.69 141.082L1852.08 120.874Z" fill="white"/>
<path d="M1869.87 113.082L1858.29 120.556L1865.7 135.498L1877.28 128.024C1879.45 126.648 1880.43 123.961 1879.47 122.026L1875.55 114.099C1874.58 112.165 1872.04 111.707 1869.87 113.082Z" fill="white"/>
<path d="M1763.32 148.835L1769.5 155.012C1770.61 156.126 1772.57 155.982 1773.86 154.686L1779.58 148.969C1780.88 147.673 1781.02 145.718 1779.91 144.604L1774.74 139.433L1776.69 137.479L1781.86 142.65C1782.97 143.764 1784.93 143.62 1786.22 142.327L1791.94 136.606C1793.24 135.31 1793.38 133.356 1792.27 132.241L1787.1 127.071L1789.05 125.121L1794.22 130.291C1795.33 131.406 1797.29 131.261 1798.58 129.965L1804.3 124.244C1805.6 122.952 1805.74 120.998 1804.63 119.883L1798.45 113.707C1802.85 106.187 1809.18 92.6092 1805.24 81.9045C1802.38 74.1159 1794.41 68.072 1777.21 58.2455C1760.01 48.4223 1741.75 51.5886 1721.48 71.8609C1701.2 92.137 1698.04 110.398 1707.86 127.595C1717.69 144.795 1723.73 152.766 1731.52 155.628C1742.22 159.565 1755.8 153.235 1763.32 148.835ZM1760.01 82.0987C1764.6 75.9129 1773.69 74.4801 1780.3 78.9024C1786.9 83.3247 1788.53 91.926 1783.94 98.115C1779.34 104.301 1770.26 105.734 1763.65 101.311C1757.04 96.8857 1755.41 88.288 1760.01 82.0987ZM1764.18 114.56L1774.95 114.968L1769.77 120.149L1764.58 125.333L1764.18 114.56ZM1728.52 130.681C1724.1 124.07 1725.53 114.989 1731.71 110.391C1737.91 105.792 1746.5 107.419 1750.93 114.034C1755.35 120.641 1753.92 129.726 1747.73 134.324C1741.54 138.919 1732.94 137.288 1728.52 130.681Z" fill="white"/>
<path d="M1775.32 864.076L1784.37 858.851C1789.04 856.158 1794.99 857.1 1798.84 861.143C1801.46 863.892 1804.43 866.248 1807.67 868.145C1808.69 868.746 1809.89 868.719 1810.82 868.181C1811.29 867.909 1811.69 867.507 1811.97 866.99C1812.81 865.448 1812.24 863.464 1810.7 862.56C1808 860.976 1805.52 859.008 1803.33 856.71C1797.41 850.502 1788.27 849.055 1781.1 853.192L1772.06 858.416C1770.55 859.284 1770.06 861.255 1770.97 862.818C1771.87 864.381 1773.82 864.944 1775.32 864.076Z" fill="white"/>
<path d="M1758.44 873.824L1765.52 869.736C1767.02 868.868 1767.51 866.897 1766.61 865.334C1765.71 863.771 1763.75 863.208 1762.25 864.076L1755.17 868.164C1753.67 869.033 1753.18 871.004 1754.08 872.567C1754.98 874.13 1756.93 874.693 1758.44 873.824Z" fill="white"/>
<path d="M1752.39 976.56L1746.74 979.822C1741.13 983.059 1733.83 980.953 1730.47 975.126L1699.7 921.827C1696.33 916.001 1698.16 908.626 1703.77 905.389L1750.81 878.227C1752.32 877.359 1752.8 875.388 1751.9 873.825C1751 872.262 1749.05 871.699 1747.54 872.567L1700.5 899.729C1691.89 904.701 1689.08 916.025 1694.25 924.972L1725.02 978.271C1730.19 987.219 1741.4 990.453 1750.01 985.481L1755.66 982.22C1757.16 981.352 1757.65 979.381 1756.75 977.818C1755.84 976.255 1753.89 975.692 1752.39 976.56Z" fill="white"/>
<path d="M1852.81 837.406L1835.21 847.564C1833.71 848.433 1833.22 850.404 1834.12 851.967L1835.71 854.72C1827.34 858.645 1817.19 856.678 1810.48 849.638C1806.03 844.97 1800.15 841.855 1793.91 840.866C1787.68 839.881 1781.28 841.051 1775.89 844.161L1695.29 890.698C1681.88 898.436 1677.52 916.064 1685.56 929.991L1716.33 983.29C1724.37 997.218 1741.82 1002.25 1755.22 994.514L1835.83 947.977C1846.98 941.537 1852.14 928.092 1848.38 915.282C1846.97 910.483 1847.16 905.319 1848.92 900.744C1850.45 896.745 1853.15 893.301 1856.59 890.886L1858.18 893.641C1859.09 895.204 1861.04 895.767 1862.54 894.898L1880.14 884.74C1881.64 883.871 1882.13 881.9 1881.23 880.337L1857.17 838.663C1856.26 837.101 1854.31 836.538 1852.81 837.406ZM1842.99 898.212C1840.73 904.11 1840.48 910.764 1842.3 916.948C1845.22 926.888 1841.21 937.321 1832.56 942.318L1751.96 988.854C1741.56 994.859 1728.02 990.952 1721.78 980.145L1691.01 926.846C1684.77 916.039 1688.15 902.362 1698.55 896.357L1779.16 849.821C1783.34 847.408 1788.3 846.499 1793.14 847.263C1797.98 848.03 1802.54 850.448 1806 854.071C1814.77 863.277 1828.1 865.748 1838.99 860.39L1840.94 863.768C1834.22 867.137 1826.5 867.948 1819.08 866.029C1817.37 865.586 1815.67 866.632 1815.29 868.364C1814.92 870.096 1816 871.859 1817.71 872.302C1826.72 874.631 1836.09 873.604 1844.21 869.434L1848.1 876.171C1841.29 880.553 1836.19 886.923 1833.35 894.649C1830.4 902.626 1830.14 911.257 1832.6 919.607C1834.17 924.966 1832.01 930.591 1827.35 933.284L1762.74 970.585C1761.23 971.454 1760.75 973.425 1761.65 974.988C1762.55 976.55 1764.5 977.113 1766.01 976.245L1830.61 938.944C1837.78 934.807 1841.09 926.171 1838.68 917.94C1834.62 904.133 1839.84 889.433 1851.37 881.837L1853.32 885.216C1848.67 888.339 1845.04 892.891 1842.99 898.212ZM1874.14 880.652L1862 887.665L1841.2 851.652L1853.35 844.638L1874.14 880.652Z" fill="white"/>
<path d="M1762.91 955.201C1771.28 957.517 1780.99 955.54 1791.75 949.326C1809.3 939.191 1815 916.082 1804.46 897.812C1803.55 896.249 1801.6 895.686 1800.1 896.555L1786.29 904.53C1784.78 905.398 1784.29 907.369 1785.2 908.932C1786.47 911.144 1785.78 913.944 1783.65 915.173L1777.79 918.556L1769.03 903.376L1781.17 896.369C1782.67 895.5 1783.16 893.529 1782.26 891.966C1781.35 890.403 1779.4 889.84 1777.9 890.709L1765.76 897.716L1763.6 893.968L1769.73 890.426C1771.23 889.558 1771.72 887.587 1770.82 886.024C1769.92 884.461 1767.97 883.898 1766.46 884.766L1760.33 888.308L1757.17 882.839C1756.27 881.276 1754.32 880.713 1752.81 881.581C1751.31 882.45 1750.82 884.421 1751.72 885.984L1754.88 891.453L1748.75 894.994C1747.24 895.863 1746.76 897.834 1747.66 899.397C1748.56 900.959 1750.51 901.522 1752.02 900.654L1758.15 897.113L1760.31 900.861L1748.18 907.869C1746.67 908.737 1746.18 910.708 1747.09 912.271C1747.99 913.834 1749.94 914.397 1751.44 913.529L1763.58 906.521L1772.34 921.701L1768.82 923.737C1766.3 925.191 1763.02 924.245 1761.51 921.629L1758.3 916.061C1757.39 914.498 1755.44 913.935 1753.94 914.804L1732.78 927.02C1731.28 927.888 1730.79 929.859 1731.69 931.422L1739.28 944.565C1740.18 946.128 1742.13 946.691 1743.64 945.823L1747.27 943.727C1751.6 949.671 1756.85 953.525 1762.91 955.201ZM1738.77 931.107L1754.48 922.036L1756.06 924.774C1759.38 930.511 1766.56 932.586 1772.08 929.397L1786.92 920.833C1791.1 918.417 1792.99 913.483 1791.87 908.852L1800.5 903.868C1807.12 918.48 1802.12 935.795 1788.48 943.666C1779.19 949.03 1771.08 950.809 1764.38 948.956C1759.11 947.499 1754.55 943.733 1750.83 937.763C1749.9 936.27 1748 935.758 1746.53 936.605L1743.09 938.591L1738.77 931.107Z" fill="white"/>
<path d="M1769.52 942.989C1770.78 942.262 1771.35 940.684 1770.9 939.249C1770.02 936.469 1766.18 936.155 1765 938.711C1764.39 940.033 1764.78 941.699 1765.93 942.644C1766.96 943.49 1768.4 943.634 1769.52 942.989Z" fill="white"/>
<path d="M1777.68 938.278C1778.91 937.567 1779.5 936.028 1779.08 934.613C1778.7 933.309 1777.52 932.33 1776.2 932.222C1774.79 932.107 1773.48 932.98 1773.03 934.319C1772.58 935.669 1773.11 937.241 1774.28 938.079C1775.29 938.8 1776.64 938.879 1777.68 938.278Z" fill="white"/>
<path d="M1785.84 933.567C1787.17 932.8 1787.74 931.077 1787.14 929.597C1786.04 926.901 1782.19 926.842 1781.22 929.531C1780.77 930.796 1781.16 932.271 1782.19 933.17C1783.22 934.06 1784.7 934.222 1785.84 933.567Z" fill="white"/>
<path d="M1794 928.854C1795.34 928.084 1795.89 926.369 1795.3 924.885C1794.23 922.188 1790.41 922.147 1789.4 924.757C1788.89 926.077 1789.34 927.67 1790.48 928.559C1791.5 929.363 1792.91 929.484 1794 928.854Z" fill="white"/>
<path d="M1858.47 678.226C1860.67 686.089 1857.83 693.564 1852.61 698.515C1847.05 703.797 1840.74 706.333 1832.67 705.215C1832.17 705.146 1829.01 705.204 1827.45 705.77C1826.2 706.224 1821.09 708.353 1820.59 707.82C1820.23 707.56 1824.3 704.081 1825.25 703.08C1826.87 701.37 1828.9 698.898 1831.79 699.299C1837.77 700.127 1844.13 697.924 1848.21 694.05C1852.29 690.176 1854.23 685.025 1851.96 678.815C1849.51 672.11 1846.27 668.86 1842.52 667.12C1838.77 665.381 1834.17 665.18 1829.03 665.764C1818.76 666.93 1807.07 671.657 1797.07 668.763C1796.95 668.73 1796.84 668.69 1796.73 668.643L1784.19 663.423C1783.86 662.591 1783.65 661.873 1783.56 661.29C1783.39 660.231 1783.54 659.673 1783.82 659.222C1784.16 658.664 1785.05 658.064 1786.57 657.572C1786.57 657.58 1786.57 657.589 1786.57 657.597L1799.05 662.795C1805.58 664.604 1817 660.848 1828.37 659.557C1834.08 658.908 1839.96 658.99 1845.3 661.467C1850.64 663.944 1855.11 668.846 1857.96 676.648C1858.15 677.175 1858.32 677.701 1858.47 678.225L1858.47 678.226ZM1786.25 653.111C1786.25 653.119 1786.25 653.127 1786.25 653.135C1783.53 653.804 1781.35 654.922 1780.06 657.005C1779.16 658.445 1778.91 660.211 1779.2 661.998C1779.41 663.344 1779.89 664.743 1780.62 666.261C1779.53 666.946 1778.33 667.543 1777.01 668.062C1772.99 669.64 1767.99 670.42 1762.81 670.637C1756.94 670.883 1750.89 670.416 1745.75 669.752C1745.06 655.116 1751.86 640.253 1763.92 627.56C1768.07 630.551 1772.94 634.459 1777.09 638.783C1780.66 642.493 1783.67 646.495 1785.29 650.311C1785.7 651.265 1786.02 652.197 1786.25 653.11L1786.25 653.111ZM1760.3 625.061C1748.11 638.074 1740.87 653.521 1741.31 669.103C1739.49 668.804 1737.87 668.499 1736.54 668.222C1736.02 667.694 1735.56 666.831 1735.27 665.498C1734.93 663.918 1734.87 661.794 1735.11 659.375C1735.6 654.535 1737.28 648.519 1739.7 642.813C1742.11 637.108 1745.26 631.691 1748.52 627.986C1751.63 624.462 1754.62 622.772 1756.94 622.935C1757.86 623.483 1759.01 624.205 1760.3 625.061L1760.3 625.061Z" fill="white"/>
<path d="M139.487 309.831L137.323 308.015L134.84 310.974L137.004 312.79L139.487 309.831Z" fill="white"/>
<path d="M218.359 360.548C206.791 355.305 201.956 353.48 194.581 345.059C172.534 319.88 223.06 278.534 186.644 247.977C150.229 217.421 118.288 274.362 89.6591 257.02C80.0853 251.218 77.4493 246.774 70.2767 236.293C63.477 226.344 44.5935 223.038 43.1624 244.781C41.4512 270.645 50.7334 309.177 100.354 350.814C149.978 392.453 189.534 394.901 214.71 388.727C235.872 383.539 229.337 365.516 218.359 360.548ZM135.559 280.239C140.245 274.654 151.847 269.285 161.775 277.615C171.704 285.946 168.43 298.304 163.743 303.889C159.059 309.471 157.958 310.784 156.578 312.428C155.199 314.072 149.607 315.531 148.425 311.738C148.425 311.738 145.325 315.432 144.499 316.417C143.67 317.404 138.44 319.737 131.393 313.823C124.348 307.912 125.734 302.354 126.563 301.367C127.389 300.382 130.489 296.688 130.489 296.688C126.546 296.181 127.014 290.422 128.394 288.778C129.773 287.134 130.875 285.821 135.559 280.239ZM113.011 319.003C112.25 319.134 111.475 319.849 111.05 320.267C110.21 321.076 109.002 321.448 107.824 321.141C106.036 320.683 104.99 318.841 105.493 317.036C105.764 316.052 106.436 315.298 107.274 314.867C106.77 314.095 106.581 313.116 106.849 312.141C107.349 310.328 109.21 309.232 111.002 309.69C112.181 309.996 113.033 310.901 113.333 311.999C113.488 312.565 113.8 313.56 114.383 314.034L119.711 315.401L122.446 321.426L113.011 319.003ZM137.313 337.702C136.396 338.138 135.401 338.119 134.554 337.757C134.274 338.657 133.643 339.451 132.729 339.889C131.032 340.702 129.041 339.986 128.279 338.305C127.772 337.197 127.926 335.941 128.586 334.981C128.921 334.487 129.487 333.597 129.479 332.832L116.99 305.303C116.427 304.805 115.391 304.68 114.809 304.622C113.669 304.513 112.636 303.825 112.132 302.72C111.373 301.035 112.127 299.016 113.819 298.204C114.733 297.771 115.733 297.789 116.586 298.15C116.862 297.249 117.488 296.455 118.405 296.019C120.1 295.215 122.093 295.917 122.858 297.6C123.357 298.717 123.203 299.968 122.554 300.926C122.217 301.423 121.648 302.316 121.65 303.077L134.137 330.609C134.711 331.106 135.738 331.234 136.326 331.292C137.459 331.396 138.499 332.084 139 333.186C139.768 334.872 139.01 336.895 137.313 337.702ZM145.675 330.861C144.497 330.56 143.636 329.659 143.337 328.56C143.179 327.992 142.879 327.001 142.285 326.528L132.845 324.097L130.104 318.073L143.67 321.555C144.428 321.421 145.198 320.707 145.628 320.289C146.46 319.483 147.673 319.111 148.854 319.415C150.638 319.87 151.687 321.715 151.182 323.522C150.911 324.501 150.238 325.255 149.398 325.684C149.905 326.458 150.094 327.442 149.826 328.418C149.326 330.231 147.466 331.322 145.675 330.861Z" fill="white"/>
<path d="M138.243 313.83L139.5 314.885C140.002 315.306 140.759 315.227 141.188 314.715L142.891 312.686L140.727 310.87L138.243 313.83Z" fill="white"/>
<path d="M139.32 303.118L137.159 301.304L134.676 304.264L136.837 306.077L139.32 303.118Z" fill="white"/>
<path d="M142.724 305.974L140.56 304.158L138.076 307.117L140.24 308.933L142.724 305.974Z" fill="white"/>
<path d="M128.814 304.332C128.384 304.844 128.444 305.607 128.943 306.026L130.197 307.078L132.68 304.119L130.516 302.303L128.814 304.332Z" fill="white"/>
<path d="M132.969 299.379L131.269 301.406L133.433 303.222L135.917 300.262L134.663 299.21C134.164 298.791 133.402 298.864 132.969 299.379Z" fill="white"/>
<path d="M136.084 306.975L133.923 305.161L131.439 308.121L133.601 309.934L136.084 306.975Z" fill="white"/>
<path d="M145.22 308.068L143.963 307.013L141.479 309.973L143.644 311.789L145.344 309.763C145.776 309.248 145.722 308.49 145.22 308.068Z" fill="white"/>
<path d="M150.389 302.57C152.377 304.239 155.381 303.938 157.094 301.896C158.804 299.858 158.576 296.85 156.588 295.182C154.597 293.511 151.595 293.809 149.885 295.847C148.172 297.888 148.398 300.9 150.389 302.57Z" fill="white"/>
<path d="M139.18 293.165C141.168 294.833 144.172 294.532 145.885 292.491C147.596 290.453 147.368 287.445 145.379 285.776C143.389 284.106 140.386 284.404 138.676 286.442C136.963 288.483 137.189 291.494 139.18 293.165Z" fill="white"/>
<path d="M142.747 300.293C141.434 302.865 144.606 303.361 144.837 301.826L145.521 296.987L140.873 298.5C139.405 298.998 140.441 302.032 142.747 300.293Z" fill="white"/>
<defs>
<clipPath id="clip0_1_127">
<rect width="121.378" height="101.232" fill="white" transform="translate(12 85.6887) rotate(-30)"/>
</clipPath>
<clipPath id="clip1_1_127">
<rect width="162" height="165" fill="white" transform="translate(38 479)"/>
</clipPath>
</defs>
</svg>
